<svg version="1.1" id="Layer_1" xmlns="http://www.w3.org/2000/svg" xmlns:xlink="http://www.w3.org/1999/xlink" x="0px" y="0px"
	 width="100%" viewBox="0 0 1080 1080" enable-background="new 0 0 1080 1080" xml:space="preserve">
<path fill="#FFFFFF" opacity="1.000000" stroke="none" 
	d="
M598.000000,1081.000000 
	C400.189453,1081.000000 202.878876,1080.988892 5.568356,1081.085938 
	C1.945774,1081.087646 0.895233,1080.475586 0.896453,1076.569336 
	C1.007969,719.610535 1.009667,362.651733 0.882322,5.692982 
	C0.880832,1.518645 1.870237,0.896188 5.805996,0.897407 
	C362.598114,1.007960 719.390259,1.007783 1076.182373,0.899066 
	C1080.093872,0.897874 1081.120728,1.482180 1081.119141,5.681380 
	C1080.990234,362.473511 1080.989380,719.265686 1081.123047,1076.057861 
	C1081.124756,1080.442383 1080.021606,1081.103516 1075.943237,1081.100586 
	C916.795593,1080.982178 757.647766,1081.000000 598.000000,1081.000000 
z"/>
<path fill="#32A562" opacity="1.000000" stroke="none" 
	d="
M540.000000,441.163422 
	C434.856140,441.163605 330.212280,441.131836 225.568604,441.271057 
	C220.982941,441.277130 219.489914,440.111938 219.917084,435.551605 
	C220.379868,430.611176 218.284286,423.934296 220.792755,421.076202 
	C223.672302,417.795319 230.483521,420.045380 235.571487,420.044128 
	C442.193085,419.992401 648.814697,420.018524 855.436218,419.888092 
	C860.347961,419.885010 862.453247,420.833588 861.691223,426.065063 
	C860.981445,430.937317 863.815857,437.548737 860.476685,440.347443 
	C857.593262,442.764252 851.248047,441.148132 846.433228,441.149017 
	C744.455505,441.167969 642.477722,441.163391 540.000000,441.163422 
z"/>
<path fill="#32A562" opacity="1.000000" stroke="none" 
	d="
M795.000000,640.843994 
	C815.995300,640.843872 836.491577,640.944824 856.985107,640.752930 
	C860.775513,640.717407 861.988525,641.780579 861.698242,645.513184 
	C861.389160,649.488220 861.346680,653.531616 861.707947,657.497803 
	C862.069641,661.469055 860.433411,662.578552 856.873108,662.010681 
	C856.385620,661.932922 855.875000,662.000000 855.375122,662.000000 
	C645.589600,662.000000 435.804077,661.977722 226.018677,662.130981 
	C220.878952,662.134705 219.382553,660.828430 219.914764,655.874512 
	C220.426102,651.114746 218.399551,644.662720 220.832718,641.902161 
	C223.634644,638.723206 230.207733,640.889221 235.127518,640.887817 
	C421.584991,640.835938 608.042480,640.843994 795.000000,640.843994 
z"/>
<path fill="#1E5134" opacity="1.000000" stroke="none" 
	d="
M574.147339,526.909790 
	C577.135254,521.286194 580.352173,516.161560 582.659912,510.655914 
	C584.943237,505.208313 588.356812,503.547272 594.173889,503.634491 
	C599.347839,503.712036 600.676331,504.991486 600.601135,510.169586 
	C600.286499,531.821167 600.372864,553.480652 600.558105,575.135193 
	C600.590515,578.928467 599.536926,579.967712 595.800720,579.805176 
	C586.738464,579.411194 588.261108,580.793091 588.197449,572.038086 
	C588.109070,559.877991 588.174683,547.716797 588.174377,535.556030 
	C588.174316,534.723083 588.276184,533.874207 588.149475,533.060852 
	C587.939148,531.709778 588.961609,529.625244 586.972351,529.254456 
	C585.568726,528.992920 585.098572,530.907227 584.485962,532.042297 
	C578.474121,543.180542 572.455200,554.315247 566.526306,565.497681 
	C565.035400,568.309692 563.338074,570.490784 559.790100,570.572571 
	C556.006836,570.659729 554.190735,568.400024 552.609070,565.403748 
	C546.700195,554.209900 540.687073,543.071045 534.678955,531.929932 
	C533.862610,530.416138 533.299988,528.659058 531.531555,527.433350 
	C530.306274,529.230530 530.773743,530.918213 530.769348,532.470398 
	C530.729431,546.630066 530.632080,560.791443 530.825439,574.948547 
	C530.874512,578.541016 530.120300,580.344299 526.194031,579.755554 
	C524.727600,579.535706 523.192749,579.619080 521.703369,579.740112 
	C519.292053,579.935974 518.533630,578.884216 518.539429,576.537842 
	C518.596741,553.216003 518.569214,529.893982 518.596313,506.572021 
	C518.597168,505.802185 518.668213,504.771698 519.142212,504.307831 
	C521.321350,502.175385 532.861572,504.445343 534.391602,507.298920 
	C542.104309,521.682983 549.762390,536.096313 557.472778,550.481628 
	C558.050232,551.558960 558.013611,553.417175 559.704102,553.344055 
	C561.043335,553.286011 561.113586,551.654114 561.636230,550.668091 
	C565.769714,542.869629 569.868591,535.052917 574.147339,526.909790 
z"/>
<path fill="#1D5033" opacity="1.000000" stroke="none" 
	d="
M455.730682,575.682495 
	C437.129517,584.894470 416.667725,580.917786 405.398102,566.133728 
	C394.458893,551.783081 395.090424,528.703491 407.224823,515.206482 
	C417.694244,503.561340 431.201202,500.725708 445.944519,504.096954 
	C459.717865,507.246399 468.679169,516.121460 472.610840,529.717590 
	C477.855255,547.853149 471.301300,565.709656 455.730682,575.682495 
z"/>
<path fill="#1A4E30" opacity="1.000000" stroke="none" 
	d="
M357.233368,546.443909 
	C354.619781,566.374939 340.983154,578.906128 321.108276,579.643188 
	C312.121735,579.976440 303.110870,579.602905 294.114960,579.765930 
	C291.221924,579.818298 290.436310,578.816345 290.447205,576.029541 
	C290.536560,553.199463 290.495483,530.369019 290.501648,507.538666 
	C290.502136,505.750305 290.052155,503.797668 293.044495,503.845978 
	C303.538116,504.015442 314.135437,503.143585 324.508057,504.312164 
	C346.581909,506.799042 359.001221,523.167175 357.233368,546.443909 
z"/>
<path fill="#1E5134" opacity="1.000000" stroke="none" 
	d="
M793.583374,521.576172 
	C794.755920,532.592712 790.878723,540.602600 781.197021,545.377319 
	C778.680237,546.618591 778.659851,547.384583 780.274902,549.659546 
	C787.084656,559.252441 793.601624,569.053101 800.773193,579.581543 
	C795.512024,579.581543 791.254700,579.737244 787.016418,579.520386 
	C784.658508,579.399780 783.363708,577.434448 782.160950,575.573669 
	C777.458191,568.297852 772.463318,561.194031 768.105957,553.718018 
	C765.343445,548.978210 761.283752,549.695557 757.209473,549.910278 
	C754.863159,550.033936 755.715515,552.144775 755.700867,553.439758 
	C755.619751,560.604675 755.475891,567.777893 755.739990,574.934021 
	C755.872864,578.535950 755.040039,579.899902 751.115051,579.821289 
	C741.862061,579.635986 741.858032,579.849915 741.858032,570.749756 
	C741.857971,549.918823 741.934143,529.087280 741.779602,508.257446 
	C741.754700,504.909302 742.355835,503.560455 746.046814,503.780182 
	C755.673096,504.353241 765.383484,502.953796 774.961304,504.835083 
	C784.277649,506.664978 791.487549,510.980438 793.583374,521.576172 
z"/>
<path fill="#1A4E30" opacity="1.000000" stroke="none" 
	d="
M655.167725,503.873901 
	C668.130615,503.873962 680.622070,504.107880 693.096985,503.754913 
	C697.849976,503.620422 697.175903,506.320892 697.023499,509.065796 
	C696.877563,511.694336 698.511536,515.219910 693.151062,514.977173 
	C684.844849,514.601135 676.498840,515.122192 668.190186,514.774048 
	C664.062134,514.601135 663.103149,516.094177 663.386475,519.828430 
	C663.675354,523.635193 663.640625,527.493347 663.393433,531.306030 
	C663.172791,534.709717 664.203369,536.033813 667.815308,535.869324 
	C673.961792,535.589478 680.133362,535.906677 686.288025,535.740173 
	C688.988159,535.667175 690.091187,536.300293 690.006897,539.276855 
	C689.742371,548.614563 690.702942,546.612549 682.722961,546.775696 
	C677.564758,546.881226 672.393494,546.981201 667.245483,546.729126 
	C664.071533,546.573792 663.244629,547.735352 663.393799,550.720520 
	C663.617737,555.203857 663.641785,559.717407 663.388794,564.197754 
	C663.195007,567.628174 664.246948,568.867615 667.832214,568.765747 
	C676.315063,568.525024 684.820435,568.945129 693.294678,568.583435 
	C697.737244,568.393738 697.286499,571.002991 696.993530,573.590515 
	C696.714600,576.053467 698.943054,579.873962 693.409119,579.780212 
	C680.095703,579.554810 666.775146,579.626404 653.459473,579.769348 
	C650.435364,579.801758 649.458069,578.945190 649.474182,575.845154 
	C649.591858,553.206543 649.674927,530.565491 649.423523,507.929047 
	C649.372314,503.319244 651.834656,503.779327 655.167725,503.873901 
z"/>
<path fill="#FBFCFB" opacity="1.000000" stroke="none" 
	d="
M412.193909,536.553650 
	C415.687683,519.151917 428.376007,511.086365 444.011505,515.927185 
	C444.644012,516.122986 445.260803,516.373962 445.875092,516.623413 
	C458.342133,521.686829 463.880371,539.452759 457.729431,554.642334 
	C452.807190,566.797791 438.718994,572.252991 425.994873,566.860352 
	C417.230988,563.146179 413.408020,555.867798 412.264252,546.943237 
	C411.845337,543.674622 412.164154,540.311340 412.193909,536.553650 
z"/>
<path fill="#FAFBFA" opacity="1.000000" stroke="none" 
	d="
M343.224487,541.034119 
	C342.991760,556.572266 336.889771,565.605042 324.950775,568.159363 
	C318.888489,569.456360 312.691833,568.494446 306.559814,568.699036 
	C304.333710,568.773254 304.351868,567.192444 304.351868,565.640198 
	C304.352020,549.686157 304.360107,533.732178 304.339203,517.778137 
	C304.337067,516.129517 304.478485,514.769409 306.648621,514.868408 
	C312.939423,515.155090 319.318939,514.012634 325.519104,515.495605 
	C336.855469,518.207092 342.523163,526.408691 343.224487,541.034119 
z"/>
<path fill="#FAFBFA" opacity="1.000000" stroke="none" 
	d="
M779.873108,530.264954 
	C777.192993,538.056458 771.243896,539.751648 764.315613,539.792480 
	C755.641235,539.843567 755.640808,539.845581 755.641418,531.241150 
	C755.641724,526.756653 755.661072,522.272095 755.635925,517.787781 
	C755.626953,516.192383 755.652283,514.793213 757.885254,514.865417 
	C761.866394,514.994080 765.911865,514.590454 769.821655,515.158447 
	C777.780029,516.314697 780.715149,520.851196 779.873108,530.264954 
z"/>
</svg>