<svg version="1.1" id="Layer_1" xmlns="http://www.w3.org/2000/svg" xmlns:xlink="http://www.w3.org/1999/xlink" x="0px" y="0px"
	 width="100%" viewBox="0 0 1080 240" enable-background="new 0 0 1080 240" xml:space="preserve">
<path fill="#FEFEFE" opacity="1.000000" stroke="none" 
	d="
M1036.699707,1.393006 
	C1050.315552,1.000000 1063.633423,1.132931 1076.945068,0.905949 
	C1080.247192,0.849644 1081.117920,1.395139 1081.105225,4.936297 
	C1080.945190,49.709209 1081.000000,94.482880 1081.000000,139.256363 
	C1081.000000,171.712982 1080.908447,204.170181 1081.116943,236.625458 
	C1081.142700,240.642502 1079.916992,241.148575 1076.384399,241.087433 
	C1063.572021,240.865692 1050.753418,241.000000 1037.468628,241.000000 
	C1034.847534,238.426575 1035.424805,235.315872 1035.392944,232.367996 
	C1035.287842,222.638947 1035.325073,222.638565 1025.411133,222.631241 
	C1025.077881,222.630981 1024.744629,222.631149 1024.411377,222.631149 
	C819.133240,222.631165 613.855164,222.630371 408.577026,222.633148 
	C396.513794,222.633316 397.738434,222.180817 397.618164,233.379639 
	C397.593292,235.696503 397.822235,238.068069 396.300262,240.607010 
	C339.979095,241.000000 283.958221,241.000000 227.468658,241.000000 
	C224.350296,234.567307 225.688889,227.940475 226.157089,221.381714 
	C226.276978,219.702225 227.914062,219.094421 229.484894,218.843826 
	C231.470047,218.527145 233.472900,218.613434 235.469788,218.612946 
	C264.453430,218.605820 293.437103,218.640579 322.420654,218.596497 
	C340.180145,218.569489 351.897705,205.946503 350.527649,188.423843 
	C349.721222,178.109589 343.661255,171.224335 335.245026,166.350922 
	C308.437653,150.828125 281.626068,135.311432 254.751328,119.904877 
	C251.571594,118.082024 248.464890,116.137100 245.282623,114.320274 
	C243.683334,113.407181 242.031464,112.550194 240.113281,112.722832 
	C237.189804,112.985947 236.095123,115.312805 237.840103,117.666122 
	C239.159988,119.446136 241.171585,120.406311 243.039200,121.487724 
	C272.297333,138.429260 301.513092,155.443939 330.796906,172.340988 
	C335.998779,175.342529 340.241608,179.045959 342.254517,184.967957 
	C346.644135,197.882294 337.659119,211.236633 324.042816,211.323746 
	C293.561096,211.518814 263.077576,211.417694 232.594940,211.360703 
	C226.479782,211.349274 225.638748,210.411484 225.630356,203.815018 
	C225.583679,167.169083 225.617859,130.523102 225.606430,93.877129 
	C225.600998,76.482422 219.173691,67.996002 202.803619,61.671429 
	C194.772903,58.568764 189.032486,51.928719 183.606949,45.379158 
	C179.651535,40.604313 176.335480,35.569454 176.547272,28.797771 
	C176.877045,18.253937 183.661285,10.148167 193.874908,8.808737 
	C203.649689,7.526858 212.740738,13.571226 215.636673,23.266903 
	C216.067444,24.709166 216.219467,26.207899 216.574020,27.662230 
	C217.107208,29.849321 217.884705,32.163456 220.666962,31.767023 
	C223.436020,31.372471 223.640976,28.871656 223.529556,26.668480 
	C223.097382,18.122635 219.301422,11.430899 212.265182,6.524045 
	C210.111038,5.021823 207.356293,4.308138 205.961685,1.414686 
	C269.020905,1.000000 332.041779,1.000000 395.531342,1.000000 
	C398.152649,3.573312 397.575562,6.684053 397.607483,9.631905 
	C397.712860,19.360964 397.675537,19.361376 407.588806,19.368805 
	C407.922058,19.369055 408.255310,19.368896 408.588531,19.368896 
	C613.866333,19.368912 819.144104,19.369707 1024.421875,19.366882 
	C1036.485962,19.366716 1035.261230,19.819944 1035.382324,8.621600 
	C1035.407349,6.304333 1035.177979,3.932471 1036.699707,1.393006 
z"/>
<path fill="#FEFEFE" opacity="1.000000" stroke="none" 
	d="
M166.251495,240.668671 
	C112.539627,241.000000 59.079174,240.964081 5.619063,241.081680 
	C2.096264,241.089432 0.879009,240.645203 0.886977,236.625320 
	C1.039821,159.516113 1.026628,82.406494 0.912998,5.297152 
	C0.907888,1.829393 1.453661,0.880466 5.196964,0.890125 
	C65.485237,1.045677 125.774017,1.000000 186.531342,1.000000 
	C186.988525,3.431185 184.758011,3.654546 183.319000,4.540505 
	C166.994232,14.591235 164.089890,33.761692 176.755997,48.239639 
	C179.387115,51.247131 182.108307,54.149319 185.066788,56.864090 
	C188.559998,60.069546 188.296982,61.688004 184.222549,64.038689 
	C178.659042,67.248466 173.672012,70.937965 170.624374,76.870209 
	C168.186478,81.615639 167.363907,86.567474 167.371002,91.829102 
	C167.420212,128.321869 167.401138,164.814743 167.394836,201.307571 
	C167.393112,211.292938 167.292221,211.393250 157.424698,211.395126 
	C128.597015,211.400574 99.769348,211.404663 70.941673,211.393051 
	C60.362648,211.388794 52.893967,206.334747 50.320450,197.494843 
	C47.545307,187.962357 50.928276,178.970917 60.095310,173.508316 
	C76.983360,163.444839 94.090988,153.750687 111.102386,143.894577 
	C124.220848,136.293945 137.345413,128.703186 150.412079,121.013405 
	C151.845154,120.170029 153.333572,119.388367 154.558487,118.238831 
	C155.587158,117.273445 156.247498,116.130989 155.632675,114.676865 
	C154.943176,113.046143 153.574463,112.617493 151.945328,112.774353 
	C150.417816,112.921410 149.056091,113.561317 147.753799,114.314255 
	C117.175476,131.993149 86.527084,149.550415 56.002693,167.323242 
	C42.176846,175.373352 39.013493,192.496918 45.112225,203.820480 
	C50.088512,213.059982 57.763180,218.633636 68.809959,218.617142 
	C98.137459,218.573318 127.465088,218.598679 156.792664,218.606720 
	C158.790497,218.607269 160.793533,218.532074 162.779648,218.845413 
	C165.192215,219.225998 166.958359,220.561966 167.082657,223.008636 
	C167.376328,228.789200 168.203903,234.614731 166.251495,240.668671 
z"/>
<path fill="#194D2F" opacity="1.000000" stroke="none" 
	d="
M166.468658,241.000000 
	C165.975845,235.503067 165.730438,229.995026 166.005798,224.513138 
	C166.187546,220.894592 164.861740,220.092682 161.454559,220.106522 
	C131.467911,220.228333 101.473900,219.803192 71.496178,220.335052 
	C56.204979,220.606369 44.831879,210.601532 41.830757,199.743225 
	C38.007534,185.910461 43.411144,173.027954 56.589592,165.379593 
	C87.108856,147.667130 117.699249,130.077271 148.261993,112.439751 
	C149.992462,111.441116 151.715439,110.332039 153.853546,110.767570 
	C156.092224,111.223579 157.232971,112.802307 157.648544,114.914848 
	C158.208328,117.760582 156.338150,119.139030 154.222046,120.365440 
	C138.524368,129.463165 122.835083,138.575378 107.141373,147.679916 
	C91.591499,156.701019 76.015221,165.676926 60.499340,174.756073 
	C53.377960,178.923141 49.813873,185.177261 50.695591,193.502457 
	C51.503777,201.133392 55.794678,206.295685 62.789951,209.319916 
	C65.153862,210.341888 67.623070,210.469498 70.126038,210.469864 
	C100.446373,210.474228 130.767212,210.391800 161.086456,210.574265 
	C165.193451,210.598999 166.007690,209.262924 165.994171,205.469101 
	C165.864212,168.985199 166.267105,132.495743 165.756897,96.018524 
	C165.525833,79.499283 171.455048,67.725296 187.227173,61.237225 
	C183.017792,56.824924 178.742401,52.895233 175.115662,48.437767 
	C164.486511,35.373936 165.034302,19.244404 176.192780,8.203049 
	C179.198242,5.229125 182.766922,3.139280 186.848602,1.318092 
	C193.021149,1.000000 199.042297,1.000000 205.531723,1.000000 
	C213.462326,5.186352 220.258835,9.994601 223.295303,18.575962 
	C224.364349,21.597206 224.926682,24.671000 225.187180,27.840191 
	C225.463760,31.205240 224.180008,33.487297 220.681976,33.746960 
	C217.513962,33.982121 215.736465,32.241287 215.459702,29.018372 
	C215.345810,27.692205 215.223206,26.347738 214.903915,25.061403 
	C213.078644,17.707945 208.846741,12.540314 201.287292,10.624316 
	C193.875061,8.745627 187.286942,10.458617 182.235565,16.203314 
	C177.219421,21.907934 175.371658,29.002737 178.954941,35.729790 
	C185.049667,47.171658 193.380722,56.870815 206.188629,61.318977 
	C218.405685,65.561935 226.644257,76.894379 226.812698,90.898758 
	C226.987045,105.393761 226.857056,119.892441 226.857376,134.389511 
	C226.857880,158.051407 226.965149,181.714279 226.754242,205.374298 
	C226.716492,209.607910 227.980362,210.587845 232.052032,210.565002 
	C261.878418,210.397675 291.706177,210.486938 321.533508,210.470444 
	C331.543335,210.464890 339.194000,205.099655 341.608521,196.485214 
	C344.019165,187.884491 340.214874,179.347000 331.411102,174.226456 
	C301.333099,156.732162 271.211884,139.312149 241.108383,121.861618 
	C239.812698,121.110535 238.487610,120.399811 237.249603,119.561829 
	C234.987640,118.030739 234.397827,115.921638 235.575592,113.470413 
	C236.879089,110.757545 239.113510,110.134895 241.846100,111.077866 
	C242.623932,111.346275 243.355621,111.772446 244.073563,112.186775 
	C275.220490,130.162216 306.469574,147.964035 337.465149,166.196869 
	C354.684998,176.326324 357.214813,198.666092 343.080780,212.282455 
	C337.601624,217.560913 330.959564,220.222870 323.208618,220.205307 
	C292.881561,220.136597 262.553528,220.277954 232.227783,220.065964 
	C227.790115,220.034927 226.378326,221.157135 226.755386,225.582138 
	C227.164215,230.380005 226.862366,235.238419 226.935211,240.535217 
	C206.979111,241.000000 186.958206,241.000000 166.468658,241.000000 
z"/>
<path fill="#32A562" opacity="1.000000" stroke="none" 
	d="
M1036.531372,1.000000 
	C1037.103027,6.819034 1037.179077,12.638745 1037.324951,18.456705 
	C1037.371094,20.298378 1036.755981,21.277519 1034.762573,21.165388 
	C1033.267944,21.081314 1031.764526,21.158920 1030.265015,21.158926 
	C820.992920,21.159615 611.720886,21.142220 402.448853,21.266371 
	C397.475067,21.269321 395.247284,20.384037 395.900665,14.920826 
	C396.411469,10.649934 396.002563,6.269044 396.001129,1.468514 
	C609.354248,1.000000 822.708496,1.000000 1036.531372,1.000000 
z"/>
<path fill="#32A562" opacity="1.000000" stroke="none" 
	d="
M396.468658,241.000000 
	C396.001373,235.335159 396.087677,229.668427 395.962799,224.006378 
	C395.912048,221.703094 396.544128,220.542587 399.018890,220.830688 
	C400.005127,220.945526 401.016052,220.847961 402.015717,220.847961 
	C611.615112,220.847855 821.214478,220.847794 1030.813843,220.848068 
	C1037.315186,220.848068 1037.323120,220.849747 1037.315918,227.598099 
	C1037.311401,231.762924 1037.278442,235.927734 1037.129150,240.546265 
	C823.645752,241.000000 610.291565,241.000000 396.468658,241.000000 
z"/>
<path fill="#1D5134" opacity="1.000000" stroke="none" 
	d="
M694.392639,95.033028 
	C694.392761,94.372147 694.393005,94.205620 694.392944,94.039101 
	C694.390747,83.384727 694.387390,83.517654 704.956787,83.786003 
	C708.066223,83.864952 709.305359,85.503136 710.540222,87.825851 
	C718.731873,103.232941 726.983337,118.608238 735.508667,134.542160 
	C736.912354,131.788208 738.112549,129.348801 739.386414,126.948494 
	C746.174927,114.156563 752.977234,101.371918 759.785645,88.590553 
	C761.854370,84.706825 771.702942,81.886009 775.435486,84.028618 
	C776.592346,84.692726 776.291504,85.723030 776.292419,86.638077 
	C776.316345,109.951180 776.288208,133.264374 776.349304,156.577347 
	C776.355347,158.901382 775.678101,159.676102 773.243835,159.786606 
	C764.052368,160.203842 764.057678,160.308411 764.058289,151.111832 
	C764.059082,138.123093 764.058838,125.134346 764.059143,112.145607 
	C764.059204,110.574417 764.059204,109.003227 764.059204,107.432037 
	C763.734741,107.339798 763.410278,107.247559 763.085815,107.155319 
	C761.831238,109.386482 760.542480,111.599220 759.327881,113.851952 
	C753.718750,124.255219 748.088379,134.647400 742.561340,145.094238 
	C741.011963,148.022736 739.411804,150.520966 735.583435,150.570847 
	C731.520569,150.623764 729.837341,147.967148 728.204834,144.889542 
	C721.508850,132.266495 714.719604,119.692947 707.745422,106.692429 
	C705.982666,108.563118 706.587341,110.425438 706.581299,112.048592 
	C706.527588,126.369316 706.434814,140.691910 706.631653,155.010132 
	C706.681519,158.635132 705.863831,160.384201 701.978149,159.745224 
	C700.843140,159.558609 699.633850,159.585724 698.489258,159.740875 
	C695.104248,160.199753 694.309143,158.665115 694.329224,155.475052 
	C694.454956,135.493164 694.392639,115.510078 694.392639,95.033028 
z"/>
<path fill="#1D5033" opacity="1.000000" stroke="none" 
	d="
M573.786011,117.612839 
	C576.527771,93.122459 596.054382,79.197914 620.596680,83.831039 
	C642.192383,87.907906 654.856445,110.248291 648.606262,133.242020 
	C643.713379,151.242599 627.284668,162.420029 608.435669,160.572388 
	C588.601440,158.628159 574.857483,144.583588 573.721191,125.035294 
	C573.586243,122.713829 573.727173,120.376343 573.786011,117.612839 
z"/>
<path fill="#1D5033" opacity="1.000000" stroke="none" 
	d="
M533.026123,115.844406 
	C535.332397,142.757217 519.808838,159.696381 493.257111,159.714508 
	C485.438690,159.719849 477.618896,159.631302 469.802643,159.760864 
	C467.229004,159.803528 466.319916,159.006409 466.329071,156.362854 
	C466.409424,133.240570 466.385651,110.117874 466.359497,86.995338 
	C466.357391,85.133499 466.494629,83.753975 468.956177,83.844757 
	C480.079102,84.254982 491.285767,82.793282 502.326508,84.589455 
	C519.690063,87.414268 529.901978,97.950424 533.026123,115.844406 
z"/>
<path fill="#1C4F32" opacity="1.000000" stroke="none" 
	d="
M959.183838,133.781769 
	C964.911133,142.304825 970.441589,150.530212 976.552002,159.618134 
	C971.359802,159.618134 967.264282,159.763885 963.185486,159.565109 
	C960.614807,159.439835 959.234619,157.407593 957.936096,155.388992 
	C953.252502,148.108292 948.272766,141.005524 943.876282,133.557281 
	C941.080566,128.820999 936.950928,129.683960 932.915161,129.952637 
	C930.649902,130.103455 931.566162,132.296310 931.549866,133.590912 
	C931.457825,140.916153 931.353577,148.247635 931.571960,155.567505 
	C931.671082,158.890671 930.558044,159.793793 927.298401,159.791351 
	C917.772705,159.784225 917.772156,159.928970 917.772095,150.449768 
	C917.771973,129.802643 917.866089,109.154701 917.685181,88.509163 
	C917.653076,84.844658 918.470703,83.542458 922.314880,83.795837 
	C931.431946,84.396805 940.610046,83.106918 949.718872,84.690155 
	C961.554626,86.747345 968.034729,92.346634 969.509521,102.016335 
	C971.097900,112.430458 966.361450,120.641769 955.695251,126.006058 
	C955.124512,126.293114 954.630432,126.732651 954.107300,127.096519 
	C955.806885,129.321243 957.396973,131.402679 959.183838,133.781769 
z"/>
<path fill="#1E5134" opacity="1.000000" stroke="none" 
	d="
M839.356750,146.157623 
	C839.796265,149.540924 842.078735,148.622513 843.696350,148.638916 
	C852.186584,148.724991 860.687317,148.915649 869.165466,148.585007 
	C873.479248,148.416763 873.281250,150.866623 872.933777,153.565460 
	C872.615479,156.037018 874.860352,159.868042 869.344788,159.783173 
	C855.862061,159.575714 842.373718,159.666870 828.888489,159.761734 
	C826.364746,159.779480 825.359375,159.097977 825.368835,156.407776 
	C825.449951,133.265625 825.442322,110.122978 825.374268,86.980728 
	C825.367249,84.605965 826.104797,83.810020 828.510986,83.825989 
	C842.329224,83.917671 856.148743,83.918396 869.966980,83.828133 
	C872.423462,83.812088 873.221375,84.723610 873.006470,87.041061 
	C872.868713,88.526772 872.856873,90.047867 873.005859,91.531273 
	C873.270691,94.168434 872.189392,94.972961 869.585449,94.933708 
	C860.763367,94.800758 851.934570,95.026779 843.115784,94.810135 
	C839.949646,94.732346 839.114136,95.773033 839.278381,98.772171 
	C839.514648,103.088051 839.571838,107.442986 839.266296,111.750114 
	C839.017212,115.262054 840.491577,115.950027 843.603149,115.851959 
	C849.757202,115.657997 855.936829,116.058517 862.076965,115.707603 
	C866.441589,115.458160 866.117859,118.065285 865.814575,120.731522 
	C865.530823,123.225822 867.659363,127.109993 862.164856,126.869446 
	C855.684082,126.585724 849.179138,126.904526 842.689270,126.756401 
	C840.091614,126.697113 839.202148,127.537422 839.289734,130.156235 
	C839.462280,135.311752 839.341248,140.477081 839.356750,146.157623 
z"/>
<path fill="#EEF2F0" opacity="1.000000" stroke="none" 
	d="
M197.690643,103.954803 
	C189.434372,103.665649 184.152252,99.471977 183.017090,92.662506 
	C181.953033,86.279434 184.911087,80.970070 191.591309,78.130653 
	C191.591309,81.957344 191.623550,85.547157 191.581970,89.136116 
	C191.542740,92.521049 192.343460,95.171844 196.465576,95.104721 
	C200.589920,95.037567 201.254990,92.263016 201.234390,88.956497 
	C201.219879,86.624092 201.140411,84.286232 201.272461,81.961182 
	C201.341461,80.746162 200.462738,78.959740 202.083847,78.441261 
	C203.384140,78.025391 204.464600,79.417633 205.410233,80.305908 
	C209.242218,83.905403 210.780151,88.411957 209.544724,93.474518 
	C208.107605,99.363518 204.117859,102.848923 197.690643,103.954803 
z"/>
<path fill="#FBFCFB" opacity="1.000000" stroke="none" 
	d="
M624.060608,97.687851 
	C638.730042,105.489922 639.059326,132.314377 628.475891,142.547119 
	C617.086060,153.559479 596.304810,149.687698 590.274353,135.082840 
	C586.841370,126.768784 586.750305,118.152138 589.785828,109.703308 
	C594.663879,96.125793 608.846069,91.120720 624.060608,97.687851 
z"/>
<path fill="#FAFBFA" opacity="1.000000" stroke="none" 
	d="
M480.275696,103.080574 
	C480.276703,94.872276 480.276703,94.871567 487.760681,94.872528 
	C490.758118,94.872910 493.755981,94.909714 496.752869,94.870712 
	C499.811523,94.830917 502.678497,95.612793 505.446625,96.807411 
	C516.228516,101.460464 521.489563,114.634026 518.473633,129.371078 
	C515.971375,141.598450 507.623291,148.719803 495.380554,148.644836 
	C490.471466,148.614807 483.910980,150.898270 481.110168,147.556320 
	C478.695679,144.675354 480.317535,138.347061 480.291840,133.542145 
	C480.238373,123.550957 480.275696,113.559288 480.275696,103.080574 
z"/>
<path fill="#F5F7F6" opacity="1.000000" stroke="none" 
	d="
M934.285645,94.861412 
	C939.044678,95.117188 943.364685,94.349068 947.635925,95.601791 
	C952.647278,97.071594 955.695374,100.048660 956.102478,105.395836 
	C956.555603,111.347359 954.167969,115.687057 949.238953,118.098869 
	C944.197021,120.565918 938.815063,119.636459 933.537476,119.790352 
	C931.638550,119.845726 931.428650,118.562416 931.427002,117.140633 
	C931.419250,110.489449 931.444397,103.838165 931.414490,97.187111 
	C931.406860,95.497009 932.152222,94.745255 934.285645,94.861412 
z"/>
</svg>