<svg version="1.1" id="Layer_1" xmlns="http://www.w3.org/2000/svg" xmlns:xlink="http://www.w3.org/1999/xlink" x="0px" y="0px"
	 width="100%" viewBox="0 0 1080 1080" enable-background="new 0 0 1080 1080" xml:space="preserve">
<path fill="#FFFFFF" opacity="1.000000" stroke="none" 
	d="
M609.000000,1081.000000 
	C407.523193,1081.000000 206.546387,1080.989136 5.569624,1081.085693 
	C1.949705,1081.087402 0.895054,1080.479736 0.896278,1076.570679 
	C1.008006,719.611877 1.009654,362.653046 0.882480,5.694251 
	C0.880993,1.522622 1.866319,0.896005 5.804727,0.897227 
	C362.596832,1.007979 719.388977,1.007764 1076.181152,0.899246 
	C1080.090088,0.898057 1081.120850,1.478265 1081.119263,5.680111 
	C1080.990112,362.472229 1080.989258,719.264343 1081.122681,1076.056519 
	C1081.124390,1080.437622 1080.026245,1081.103882 1075.944458,1081.100830 
	C920.463074,1080.981689 764.981506,1081.000000 609.000000,1081.000000 
z"/>
<path fill="#1A4E30" opacity="1.000000" stroke="none" 
	d="
M138.953262,603.854370 
	C115.994896,617.091553 93.320305,630.088379 70.732193,643.233765 
	C57.297817,651.052002 55.950047,667.765137 67.856384,676.958008 
	C71.411194,679.702759 75.470909,680.982117 79.926781,680.983826 
	C112.252029,680.996216 144.577621,680.922302 176.902084,681.081238 
	C180.720840,681.100037 181.091873,679.613953 181.084396,676.429932 
	C180.991577,636.940613 181.238861,597.449280 180.919876,557.962402 
	C180.787674,541.598877 188.123001,530.823486 203.052841,524.273987 
	C201.606369,521.408508 198.989838,519.619690 196.829834,517.475708 
	C192.671661,513.348328 188.795914,509.020172 186.078766,503.775299 
	C180.355331,492.727386 181.858612,479.762421 189.910080,470.626221 
	C198.027252,461.415405 211.363327,457.553955 222.142685,461.293304 
	C234.296371,465.509460 242.859604,476.753876 243.292755,488.999176 
	C243.404358,492.153961 242.727142,494.720367 239.045761,495.163818 
	C235.027756,495.647797 233.299454,493.560303 232.921082,489.743195 
	C231.950684,479.953339 227.147476,473.261780 217.235855,470.871582 
	C209.487274,469.002960 203.010544,471.567627 197.912552,477.238739 
	C192.832245,482.890259 191.751923,489.643677 194.344070,496.849762 
	C195.657455,500.500977 197.681198,503.785614 200.422516,506.513519 
	C208.130630,514.183838 215.306778,522.047913 226.128006,526.286255 
	C239.633026,531.575806 245.060867,543.320740 245.068665,557.554260 
	C245.090134,596.711121 245.195862,635.868774 244.931656,675.023865 
	C244.896271,680.268738 246.453140,681.138184 251.254364,681.103943 
	C282.245056,680.882568 313.238068,680.995056 344.230316,680.988098 
	C355.040039,680.985657 362.830200,675.568115 365.448029,666.270203 
	C368.041412,657.059143 364.080841,648.321350 354.653381,642.866516 
	C323.673431,624.940918 292.664642,607.065125 261.667358,589.169434 
	C260.513641,588.503418 259.372925,587.814331 258.210754,587.163574 
	C254.928574,585.325867 251.968643,583.087341 254.415695,578.916809 
	C256.853577,574.761841 260.252991,576.300232 263.482574,578.165955 
	C295.626862,596.736389 327.796936,615.262390 359.916595,633.875305 
	C373.402832,641.690369 379.260895,655.032776 375.536285,668.917480 
	C371.911621,682.429688 359.788361,691.375305 344.394257,691.503479 
	C326.066772,691.656067 307.737061,691.540771 289.408295,691.541382 
	C276.244934,691.541748 263.078796,691.692505 249.919830,691.451599 
	C245.886414,691.377808 244.734238,692.714111 244.998047,696.560730 
	C245.305130,701.038574 244.964020,705.557129 245.112335,710.051086 
	C245.198441,712.660217 244.669128,713.934937 241.608414,713.914795 
	C222.613983,713.789795 203.618011,713.797485 184.623413,713.909302 
	C181.707016,713.926453 180.880386,712.909790 180.985825,710.145020 
	C181.163544,705.486328 180.768753,700.796265 181.113831,696.156433 
	C181.402710,692.272400 179.954361,691.439148 176.306747,691.463135 
	C152.980270,691.616943 129.652206,691.574341 106.324799,691.525818 
	C96.499184,691.505371 86.639122,691.792664 76.856903,691.083008 
	C63.229115,690.094421 52.754868,680.082092 49.369358,665.895020 
	C46.901569,655.553711 53.220230,641.490173 63.922722,635.243225 
	C96.991028,615.941589 130.215286,596.907166 163.366409,577.747192 
	C166.457336,575.960754 169.454620,575.312927 171.546387,578.896301 
	C173.804443,582.764526 171.425812,585.122192 168.255188,586.954834 
	C158.598923,592.536255 148.934586,598.103638 138.953262,603.854370 
z"/>
<path fill="#32A562" opacity="1.000000" stroke="none" 
	d="
M662.000000,460.000092 
	C787.957092,460.000092 913.414185,460.028473 1038.871094,459.890228 
	C1043.604736,459.885010 1045.462280,460.869080 1044.893799,465.831421 
	C1044.441650,469.778351 1044.675781,473.823517 1044.843872,477.815033 
	C1044.956543,480.490387 1043.868652,481.447174 1041.334961,481.177460 
	C1040.511230,481.089783 1039.670288,481.163544 1038.837280,481.163544 
	C829.242371,481.163574 619.647400,481.142181 410.052551,481.290222 
	C404.951508,481.293823 403.371002,480.040558 403.911011,475.034882 
	C404.424683,470.273346 402.356873,463.808350 404.784424,461.052826 
	C407.578888,457.880951 414.161041,460.048157 419.083313,460.044342 
	C499.888855,459.981995 580.694458,460.000092 662.000000,460.000092 
z"/>
<path fill="#32A562" opacity="1.000000" stroke="none" 
	d="
M459.000000,702.000610 
	C441.839172,702.000610 425.176514,701.867188 408.518951,702.101074 
	C404.679718,702.154968 403.653748,701.051941 403.922424,697.376648 
	C404.249573,692.902100 404.118164,688.381287 403.955688,683.888794 
	C403.866943,681.434753 404.796234,680.574707 407.131409,680.828186 
	C408.119324,680.935303 409.128754,680.843933 410.128387,680.843933 
	C619.554810,680.843933 828.981262,680.843994 1038.407715,680.844543 
	C1044.800049,680.844543 1044.938232,680.850891 1044.757324,687.257996 
	C1044.622314,692.031067 1046.869507,698.179321 1043.807251,701.190308 
	C1041.004883,703.945801 1034.926880,701.970154 1030.299561,701.971008 
	C840.033020,702.005615 649.766541,702.000610 459.000000,702.000610 
z"/>
<path fill="#205236" opacity="1.000000" stroke="none" 
	d="
M756.169067,593.421387 
	C753.792419,597.860779 751.502136,601.928162 749.398804,606.090027 
	C747.993530,608.870667 746.044983,610.546936 742.807678,610.567078 
	C739.565308,610.587219 737.638489,608.903870 736.180786,606.153748 
	C730.173157,594.819519 724.080383,583.530273 717.982117,572.244385 
	C717.210388,570.816101 716.781799,569.100708 715.011780,568.182129 
	C713.187378,569.488098 713.973328,571.455139 713.965149,573.084412 
	C713.894836,587.081055 713.789612,601.080200 714.012817,615.073608 
	C714.072937,618.844910 713.001099,619.931213 709.253540,619.819214 
	C701.761475,619.595337 701.755066,619.809875 701.755005,612.462341 
	C701.754944,590.967041 701.821106,569.471375 701.682617,547.976990 
	C701.662048,544.784119 702.391907,543.260864 705.754272,543.846741 
	C705.916016,543.874878 706.092407,543.877930 706.252808,543.846252 
	C713.416504,542.432556 717.229309,545.608215 720.381348,552.110352 
	C727.198303,566.172913 734.973816,579.770874 742.316345,593.482544 
	C743.487854,593.473633 743.817810,592.699951 744.206238,591.961121 
	C751.726929,577.657837 759.252014,563.356812 766.780090,549.057434 
	C769.059326,544.728210 778.412781,541.743591 782.674927,543.958740 
	C784.280823,544.793457 783.681274,546.282288 783.683289,547.499146 
	C783.720764,570.327393 783.651367,593.156006 783.776794,615.983643 
	C783.794739,619.252014 782.499390,619.847351 779.636719,619.776001 
	C769.546997,619.524414 771.453857,620.815674 771.369202,611.690735 
	C771.251648,599.027893 771.339905,586.363220 771.340027,573.699341 
	C771.340027,572.081604 771.340088,570.463867 771.340088,568.846130 
	C770.832764,568.643005 770.325500,568.439941 769.818176,568.236877 
	C765.323792,576.521118 760.829346,584.805298 756.169067,593.421387 
z"/>
<path fill="#1D5033" opacity="1.000000" stroke="none" 
	d="
M509.214508,619.094116 
	C497.995575,620.334412 487.174500,619.412598 476.375275,619.734802 
	C474.079498,619.803223 473.621826,618.643738 473.624847,616.655212 
	C473.660217,593.363159 473.651886,570.071045 473.634460,546.778931 
	C473.633270,545.175537 473.617645,543.774597 475.868408,543.855713 
	C487.322235,544.268555 498.849762,542.771362 510.233276,544.685913 
	C529.127991,547.863770 540.818420,562.386169 540.670044,582.045776 
	C540.522095,601.644653 528.582336,615.874695 509.214508,619.094116 
z"/>
<path fill="#1C5032" opacity="1.000000" stroke="none" 
	d="
M653.594116,599.657837 
	C644.879578,616.352051 627.838806,623.885010 609.188171,619.544434 
	C592.714111,615.710388 581.259888,601.093262 580.934082,583.488770 
	C580.571106,563.872803 590.572937,548.929382 607.757141,544.461792 
	C622.795410,540.552124 636.875610,542.941284 647.519958,554.915710 
	C659.180542,568.033325 659.875000,583.364807 653.594116,599.657837 
z"/>
<path fill="#1D5033" opacity="1.000000" stroke="none" 
	d="
M974.775879,606.093750 
	C977.735962,610.510132 980.492065,614.629944 983.842957,619.638794 
	C978.742371,619.638794 974.517151,619.796753 970.311707,619.576538 
	C967.982483,619.454590 966.623779,617.587830 965.410339,615.703003 
	C960.635254,608.286499 955.827148,600.890991 950.984253,593.518616 
	C948.820801,590.225220 943.570435,588.609009 940.065491,589.848999 
	C938.150879,590.526306 938.827148,591.999634 938.816528,593.163452 
	C938.748291,600.654968 938.613159,608.152832 938.856262,615.637085 
	C938.966492,619.030884 937.776550,619.805115 934.573608,619.794800 
	C924.980286,619.763855 924.979919,619.900452 924.979919,610.553650 
	C924.979919,589.908691 925.104126,569.262390 924.874207,548.619995 
	C924.828674,544.526794 926.113281,543.580444 929.900818,543.801697 
	C939.187500,544.344116 948.527466,543.124084 957.799744,544.762695 
	C968.621338,546.675110 975.312073,552.582336 976.773743,561.802490 
	C978.344116,571.708313 973.967712,580.345520 964.530273,585.267944 
	C961.950256,586.613708 961.531799,587.281738 963.491089,589.799500 
	C967.468750,594.910950 970.909729,600.440186 974.775879,606.093750 
z"/>
<path fill="#1D5033" opacity="1.000000" stroke="none" 
	d="
M865.993164,543.867188 
	C869.490967,543.867126 872.538879,544.208984 875.478271,543.789856 
	C880.311462,543.100586 880.359314,545.750244 880.274780,549.309998 
	C880.195129,552.662354 880.609497,555.295776 875.595276,555.012268 
	C867.290771,554.542786 858.938293,554.989441 850.610352,554.828491 
	C847.698242,554.772156 846.374451,555.394653 846.580811,558.655273 
	C846.864380,563.136230 846.783875,567.653320 846.610596,572.145386 
	C846.501099,574.982788 847.530396,575.913696 850.351868,575.837341 
	C856.678833,575.666260 863.020996,575.965515 869.342224,575.709595 
	C872.543579,575.579956 873.210632,576.682312 873.161438,579.680481 
	C873.044556,586.801025 873.208679,586.803650 865.989929,586.803589 
	C860.824646,586.803589 855.651855,586.972656 850.496948,586.740967 
	C847.386963,586.601135 846.424377,587.653687 846.588745,590.713013 
	C846.829773,595.198914 846.846008,599.718201 846.592346,604.202515 
	C846.397644,607.644470 847.479797,608.858215 851.044861,608.755920 
	C859.369080,608.517273 867.707703,608.804932 876.034424,608.615540 
	C879.154358,608.544617 880.426758,609.197693 880.277954,612.671692 
	C879.914673,621.151062 881.027954,619.635498 873.511108,619.692139 
	C861.348389,619.783752 849.182251,619.583801 837.022644,619.797913 
	C833.422607,619.861206 832.599976,618.658813 832.621216,615.249817 
	C832.760498,592.923340 832.765076,570.595154 832.616821,548.268799 
	C832.593994,544.835327 833.429749,543.689270 837.004517,543.782776 
	C846.495483,544.031189 855.997192,543.867188 865.993164,543.867188 
z"/>
<path fill="#F1F4F3" opacity="1.000000" stroke="none" 
	d="
M220.125153,542.790894 
	C226.972046,547.975708 228.893250,554.734680 225.681351,561.311951 
	C222.889420,567.029297 215.887878,570.361450 209.775940,568.881653 
	C203.038086,567.250305 198.524399,561.147583 198.833862,554.087524 
	C199.070709,548.684082 202.175217,544.498901 207.897705,542.418701 
	C207.897705,546.351624 207.935532,550.105347 207.886597,553.857971 
	C207.841599,557.307129 209.019485,559.900330 212.831589,559.967896 
	C216.921158,560.040344 218.180939,557.333191 218.141815,553.678589 
	C218.107971,550.519043 218.142715,547.358826 218.150681,544.198914 
	C218.153412,543.114807 218.251923,542.119568 220.125153,542.790894 
z"/>
<path fill="#FCFDFC" opacity="1.000000" stroke="none" 
	d="
M518.492065,560.467896 
	C528.306824,569.134033 528.101257,588.923462 522.520813,598.039856 
	C518.578247,604.480591 512.724487,607.968262 505.322113,608.560364 
	C500.522888,608.944214 495.667816,608.570251 490.845154,608.742554 
	C488.044739,608.842590 487.550201,607.465576 487.559326,605.077087 
	C487.619049,589.426514 487.577209,573.775452 487.616180,558.124756 
	C487.619141,556.935730 487.041382,554.975708 489.057465,555.017700 
	C499.038116,555.225586 509.546387,552.670654 518.492065,560.467896 
z"/>
<path fill="#FBFCFB" opacity="1.000000" stroke="none" 
	d="
M642.632690,574.768066 
	C643.382263,581.363281 643.483521,587.485962 641.346069,593.445251 
	C637.731445,603.522766 629.880493,608.807800 618.654114,608.708557 
	C607.970276,608.614197 600.013916,603.005066 596.774780,593.040710 
	C594.283630,585.377502 594.256897,577.622925 596.930176,569.996216 
	C600.523804,559.743652 608.337524,554.736389 620.142822,554.876038 
	C630.523987,554.998779 638.203247,560.594482 641.515625,570.486633 
	C641.937378,571.746094 642.213684,573.054321 642.632690,574.768066 
z"/>
<path fill="#FBFCFB" opacity="1.000000" stroke="none" 
	d="
M944.983643,554.875122 
	C948.112732,554.970886 950.819336,554.752441 953.399780,555.224426 
	C959.797913,556.394470 963.059692,560.044739 963.353882,565.826965 
	C963.682312,572.283142 960.684143,576.732239 954.731018,578.804749 
	C950.196533,580.383240 945.524292,579.601685 940.907043,579.771057 
	C938.624451,579.854858 938.775146,578.199524 938.773682,576.685303 
	C938.768555,571.374329 939.106018,566.035339 938.667908,560.760681 
	C938.276428,556.048645 939.581177,553.895996 944.983643,554.875122 
z"/>
</svg>